<svg xmlns="http://www.w3.org/2000/svg" viewBox="0 0 512 512">
  <defs>
    <linearGradient id="g" x1="0" y1="0" x2="1" y2="1">
      <stop offset="0" stop-color="#f97316"/>
      <stop offset="1" stop-color="#f43f5e"/>
    </linearGradient>
  </defs>
  <rect width="512" height="512" rx="112" fill="#08080a"/>
  <path fill="url(#g)" d="M192 96c-13 0-24 11-24 24v72c0 22 13 41 32 49v150c0 18 14 33 32 33s32-15 32-33V241c19-8 32-27 32-49v-72c0-13-11-24-24-24s-24 11-24 24v56c0 5-4 8-8 8s-8-3-8-8v-56c0-13-11-24-24-24s-24 11-24 24v56c0 5-4 8-8 8s-8-3-8-8v-56c0-13-11-24-24-24z" transform="translate(60 0)"/>
  <path fill="url(#g)" d="M340 96c-31 0-56 43-56 96 0 39 14 61 34 69v163c0 18 10 24 22 24s22-6 22-24V96z"/>
</svg>
